# xmcd CD database file
#
# Track frame offsets:
#	183
#	17208
#	30020
#	40783
#	55308
#	68858
#	80920
#	95595
#	106470
#	118745
#	132895
#	145570
#	157833
#	172770
#	186995
#	200558
#	211633
#	229758
#	245033
#	259995
#	276470
#
# Disc length: 3909 seconds
#
# Revision: 2
# Processed by: cddbd v1.5.2PL0 Copyright (c) Steve Scherf et al.
# Submitted via: CDex 1.51
#
DISCID=280f4315
DTITLE=Erroll Garner Trio - Vol. 221 - Play, Piano, Play
DYEAR=1995
DGENRE=Jazz
TTITLE0=The Way You Look Tonight
TTITLE1=Sophisticated Lady
TTITLE2=Fine And Dandy
TTITLE3=The Petite Waltz Bounce
TTITLE4=Body And Soul
TTITLE5=I Never Knew
TTITLE6=Please Don't Talk About Me When I'm Gone
TTITLE7=Play, Piano, Play
TTITLE8=Ain't She Sweet?
TTITLE9=Ja-Da
TTITLE10=I Didn't Know
TTITLE11=You're Blase
TTITLE12=It's The Talk Of The Town
TTITLE13=Undecided
TTITLE14=Summertime
TTITLE15=You're Driving Me Crazy
TTITLE16='S Wonderful
TTITLE17=St. Louis Blues
TTITLE18=Robbin's Nest
TTITLE19=Frenesi
TTITLE20=Groovy-Day
EXTD=YEAR: 1995
EXTT0=
EXTT1=
EXTT2=
EXTT3=
EXTT4=
EXTT5=
EXTT6=
EXTT7=
EXTT8=
EXTT9=
EXTT10=
EXTT11=
EXTT12=
EXTT13=
EXTT14=
EXTT15=
EXTT16=
EXTT17=
EXTT18=
EXTT19=
EXTT20=
PLAYORDER=
